# xmcd CD database file
#
# Track frame offsets:
#	150
#	23551
#	57451
#	86770
#	115230
#	148820
#	169259
#	200294
#	241817
#
# Disc length: 3563 seconds
#
# Revision: 0
# Processed by: cddbd v1.5.1PL0 Copyright (c) Steve Scherf et al.
# Submitted via: CDex 1.51
#
DISCID=780de909
DTITLE=BFG - Here and Now
DYEAR=2000
DGENRE=Jazz
TTITLE0=Exprezu
TTITLE1=When the Night Turns Into Day
TTITLE2=Zouzou
TTITLE3=La Belle Vie Pour Maurice
TTITLE4=Ethnic
TTITLE5=The Coaster
TTITLE6=Sometimes I Feel Like a Motherless Child
TTITLE7=The Inner Life
TTITLE8=Purge
EXTD=YEAR: 2000
EXTT0=
EXTT1=
EXTT2=
EXTT3=
EXTT4=
EXTT5=
EXTT6=
EXTT7=
EXTT8=
PLAYORDER=
